PathFileType	4	(X/Y/Z)	/Users/itak/Documents/Research/Walk-IL/dataset/trc/00021_00004.trc
DataRate	CameraRate	NumFrames	NumMarkers	Units	OrigDataRate	OrigDataStartFrame	OrigNumFrames
100.000000	100.000000	4	53	mm	100.000000	392	785
Frame#	Time	RPSI			LPSI			L3			STRN			T10			C7			CLAV			RBAK			LBAK			LSHO			LUPA			LAEL			LAOL			LWTS			LWPS			LFRA			LIFD			LHPS			LHTS			RSHO			RUPA			RAEL			RAOL			RWTS			RWPS			RFRA			RIFD			RHTS			RHPS			RBHD			LFHD			RFHD			LBHD			LHIP			RHIP			RASI			LASI			LKNE			LTHI			LANK			LTIP			LTOE			LMT1			LMT5			LHEE			RKNE			RTHI			RANK			RTIP			RTOE			RMT1			RMT5			RHEE			
		X1	Y1	Z1	X2	Y2	Z2	X3	Y3	Z3	X4	Y4	Z4	X5	Y5	Z5	X6	Y6	Z6	X7	Y7	Z7	X8	Y8	Z8	X9	Y9	Z9	X10	Y10	Z10	X11	Y11	Z11	X12	Y12	Z12	X13	Y13	Z13	X14	Y14	Z14	X15	Y15	Z15	X16	Y16	Z16	X17	Y17	Z17	X18	Y18	Z18	X19	Y19	Z19	X20	Y20	Z20	X21	Y21	Z21	X22	Y22	Z22	X23	Y23	Z23	X24	Y24	Z24	X25	Y25	Z25	X26	Y26	Z26	X27	Y27	Z27	X28	Y28	Z28	X29	Y29	Z29	X30	Y30	Z30	X31	Y31	Z31	X32	Y32	Z32	X33	Y33	Z33	X34	Y34	Z34	X35	Y35	Z35	X36	Y36	Z36	X37	Y37	Z37	X38	Y38	Z38	X39	Y39	Z39	X40	Y40	Z40	X41	Y41	Z41	X42	Y42	Z42	X43	Y43	Z43	X44	Y44	Z44	X45	Y45	Z45	X46	Y46	Z46	X47	Y47	Z47	X48	Y48	Z48	X49	Y49	Z49	X50	Y50	Z50	X51	Y51	Z51	X52	Y52	Z52	X53	Y53	Z53	

393	3.92	388.4096984863281	1041.477783203125	-725.5221557617188	391.4124450683594	1021.787841796875	-562.6792602539062	397.8739013671875	1092.673461914062	-636.2978515625	169.3033294677734	1276.901000976562	-615.7535400390625	415.9980773925781	1238.840454101562	-639.4169921875	361.0543518066406	1503.498168945312	-608.4696044921875	209.7740173339844	1402.5	-605.1142578125	413.54345703125	1376.052124023438	-702.77001953125	390.8458557128906	1454.863037109375	-519.0620727539062	300.1299438476562	1449.762084960938	-433.8335571289062	357.096435546875	1325.560668945312	-372.6110534667969	394.6770324707031	1110.868530273438	-369.6707153320312	431.6559753417969	1115.166870117188	-469.71728515625	343.1601257324219	847.759521484375	-434.3455810546875	430.4445190429688	846.9850463867188	-411.3338928222656	403.1180419921875	993.785400390625	-373.5484924316406	338.6083984375	657.1553344726562	-465.2160339355469	419.1164245605469	752.7191772460938	-417.9189147949219	348.6798095703125	747.4066772460938	-431.9905700683594	271.0397033691406	1497.857666015625	-771.2697143554688	280.2171020507812	1438.480224609375	-851.5399169921875	319.9054870605469	1178.076782226562	-919.9415283203125	339.359375	1139.007080078125	-829.0933227539062	123.9256057739258	973.2079467773438	-843.2581176757812	154.7763977050781	938.8591918945312	-922.9003295898438	284.0850219726562	1102.908447265625	-934.7759399414062	29.1620922088623	811.5389404296875	-816.5804443359375	45.98714447021484	888.8516235351562	-838.2360229492188	77.33694458007812	865.4366455078125	-903.1270751953125	211.3511352539062	1681.1884765625	-659.5628662109375	153.4369354248047	1647.910522460938	-459.7986450195312	91.16837310791016	1655.162475585938	-535.7274169921875	307.6018981933594	1676.238159179688	-552.4854125976562	284.7867431640625	915.412841796875	-452.8983459472656	279.1356506347656	932.4319458007812	-830.0491333007812	172.2459716796875	958.6873779296875	-756.8756103515625	178.2944030761719	970.7293090820312	-520.465576171875	66.08441162109375	534.576904296875	-497.6661987304688	153.7994384765625	636.31982421875	-462.7120056152344	-47.35746765136719	55.49440002441406	-504.0345764160156	47.19826889038086	284.3192138671875	-488.5532836914062	-255.0510101318359	142.3191223144531	-497.3134460449219	-209.3364715576172	125.502685546875	-532.1981201171875	-146.9224395751953	106.9628143310547	-447.8413696289062	-2.99109148979187	38.37755584716797	-575.4176635742188	343.5659790039062	502.3265991210938	-808.4791259765625	279.4098510742188	765.7537841796875	-832.911376953125	561.3626098632812	47.86708068847656	-797.5657348632812	397.0278625488281	384.5315246582031	-812.2734375	328.4447631835938	39.14161682128906	-780.5509643554688	388.54638671875	45.14503860473633	-745.1729736328125	417.5187377929688	35.68582534790039	-838.1387329101562	613.6680297851562	55.75111389160156	-746.5037841796875	
394	3.93	379.4308471679688	1040.08447265625	-723.5625610351562	382.4821472167969	1020.21630859375	-560.7525634765625	388.9708557128906	1091.176513671875	-634.3497924804688	160.423095703125	1275.496948242188	-613.2483520507812	407.1397705078125	1237.369140625	-637.2800903320312	352.3670654296875	1501.995849609375	-605.7723388671875	201.0458374023438	1401.046142578125	-602.3839721679688	404.701904296875	1374.715209960938	-700.3557739257812	382.3349914550781	1453.181396484375	-516.5126953125	291.6961059570312	1447.908813476562	-431.177490234375	348.2861328125	1323.380737304688	-370.2135620117188	384.9401550292969	1108.5537109375	-367.5348510742188	421.9688720703125	1112.746704101562	-467.5446166992188	331.5119018554688	845.9491577148438	-432.4625244140625	418.8121032714844	844.5029296875	-409.5625305175781	392.6192321777344	991.4097290039062	-371.5401000976562	326.0387268066406	655.3260498046875	-463.2071838378906	406.7114868164062	750.343994140625	-416.1037902832031	336.3377990722656	745.5859375	-430.0466003417969	262.0838623046875	1496.635009765625	-768.46728515625	271.1700134277344	1437.34619140625	-848.8203125	310.9852294921875	1177.135375976562	-917.656005859375	330.7643127441406	1137.981323242188	-826.9375610351562	116.8517227172852	971.0154418945312	-840.6768798828125	146.8941802978516	937.1248168945312	-920.57568359375	275.4292602539062	1101.877685546875	-932.5317993164062	22.46587562561035	808.8612060546875	-814.0333251953125	38.72358322143555	886.330078125	-835.5938720703125	69.93721771240234	863.2637939453125	-900.6738891601562	202.24267578125	1679.768432617188	-656.232666015625	145.5331420898438	1646.20849609375	-456.1651000976562	82.82436370849609	1653.542114257812	-531.6866455078125	299.1533203125	1674.792724609375	-549.7689819335938	275.8710327148438	913.8509521484375	-451.0990295410156	270.1556091308594	931.3392944335938	-828.1845703125	163.1570434570312	957.4088745117188	-755.0765380859375	169.3081970214844	969.1019287109375	-518.56005859375	57.63904571533203	533.3300170898438	-494.1789245605469	145.0700531005859	635.1685791015625	-460.3199157714844	-55.19505310058594	53.89839172363281	-500.8224182128906	39.36959075927734	282.7334289550781	-485.6546630859375	-262.4704895019531	140.8141632080078	-489.8666687011719	-217.4841918945312	124.0579528808594	-525.6961059570312	-153.4315948486328	105.2479782104492	-442.5165710449219	-11.85141754150391	36.95034027099609	-572.9559936523438	336.5522155761719	501.5845947265625	-808.0529174804688	271.3589172363281	765.0397338867188	-831.478515625	560.9313354492188	49.75385284423828	-798.0468139648438	391.5293579101562	384.1244812011719	-812.0386352539062	328.3486022949219	39.09441375732422	-780.5532836914062	388.4320068359375	45.31588745117188	-745.373046875	417.3127136230469	35.58609008789062	-838.3082275390625	613.2890014648438	58.40214920043945	-747.091552734375	
395	3.94	370.2039184570312	1038.82177734375	-721.4657592773438	373.4081726074219	1018.794311523438	-558.7068481445312	379.8672790527344	1089.754150390625	-632.2507934570312	151.4242095947266	1274.234252929688	-610.539306640625	398.14697265625	1235.990966796875	-634.9689331054688	343.5847473144531	1500.58984375	-602.896728515625	192.2041015625	1399.736328125	-599.4739379882812	395.7513122558594	1373.472900390625	-697.7691650390625	373.7557983398438	1451.62451171875	-513.8045654296875	283.1863098144531	1446.205444335938	-428.3541564941406	339.3601989746094	1321.34423828125	-367.6292419433594	374.9976501464844	1106.380249023438	-365.1717224121094	412.0566101074219	1110.432373046875	-465.1556701660156	319.5044860839844	844.30224609375	-430.2612915039062	406.8166198730469	842.14599609375	-407.5032958984375	381.8751525878906	989.1875610351562	-369.2644348144531	313.0777587890625	653.6664428710938	-460.8731994628906	393.9105529785156	748.1119384765625	-413.98828125	323.6054382324219	743.9346313476562	-427.7776489257812	253.0386810302734	1495.515258789062	-765.4881591796875	262.0444946289062	1436.312744140625	-845.9149169921875	302.0574340820312	1176.309448242188	-915.1534423828125	322.1150817871094	1137.079467773438	-824.5608520507812	110.0394897460938	968.6213989257812	-838.1961669921875	139.3827056884766	935.2672729492188	-918.3408203125	266.8692016601562	1100.945922851562	-930.1307373046875	16.17483139038086	805.8212280273438	-811.8101806640625	31.78036499023438	883.4715576171875	-833.224609375	62.98015594482422	860.8424682617188	-898.4434204101562	193.0455322265625	1678.474975585938	-652.7356567382812	137.5742950439453	1644.639892578125	-452.3678588867188	74.41629028320312	1652.047119140625	-527.478515625	290.6237182617188	1673.482299804688	-546.8900756835938	266.9085998535156	912.4242553710938	-449.1247253417969	260.8734741210938	930.3017578125	-826.1405029296875	153.8078002929688	956.245849609375	-753.0147705078125	160.2162933349609	967.5899047851562	-516.3880004882812	49.09633636474609	532.0260009765625	-490.4411315917969	136.3502502441406	634.0948486328125	-457.6510620117188	-61.54386901855469	51.80392074584961	-498.2057189941406	32.06118011474609	280.9676513671875	-483.0423583984375	-268.6933898925781	137.882080078125	-483.4574279785156	-224.2714385986328	121.4150314331055	-520.1185913085938	-158.7560272216797	102.5097274780273	-438.0168151855469	-19.02799797058105	35.35652160644531	-571.0498657226562	329.2535400390625	500.9494934082031	-807.5594482421875	263.0962219238281	764.5389404296875	-829.885498046875	560.4006958007812	51.90250778198242	-798.5903930664062	385.7812194824219	383.8600463867188	-811.7813720703125	328.2299499511719	39.05432510375977	-780.5741577148438	388.2818603515625	45.56731414794922	-745.6066284179688	417.1171569824219	35.4844970703125	-838.4813232421875	612.8252563476562	61.44391632080078	-747.7393798828125	
396	3.95	360.7000122070312	1037.71142578125	-719.2449951171875	364.1749267578125	1017.540100097656	-556.543212890625	370.5370788574219	1088.412963867188	-630.0027465820312	142.3115386962891	1273.127319335938	-607.6135864257812	389.0147705078125	1234.714477539062	-632.477294921875	334.7188720703125	1499.298828125	-599.8433837890625	183.2437286376953	1398.581787109375	-596.3753662109375	386.6884155273438	1372.333251953125	-695.00732421875	365.1009216308594	1450.197265625	-510.9273376464844	274.6097717285156	1444.668823242188	-425.3583984375	330.33251953125	1319.472900390625	-364.8513793945312	364.8732604980469	1104.369995117188	-362.5809020996094	401.9315795898438	1108.246704101562	-462.5520629882812	307.1588745117188	842.8499145507812	-427.7351989746094	394.4815063476562	839.9419555664062	-405.1573791503906	370.9056701660156	987.1426391601562	-366.72314453125	299.7079162597656	652.2109375	-458.21826171875	380.7260437011719	746.0433959960938	-411.5657958984375	310.4654235839844	742.4873657226562	-425.1877746582031	243.9051818847656	1494.51123046875	-762.3300170898438	252.8317565917969	1435.389892578125	-842.8186645507812	293.1049499511719	1175.607299804688	-912.4326171875	313.3939514160156	1136.307983398438	-821.9586181640625	103.3757858276367	966.0499877929688	-835.82861328125	132.2328033447266	933.3092041015625	-916.197265625	258.3824768066406	1100.1240234375	-927.5712280273438	10.30127716064453	802.4356689453125	-809.915771484375	25.1904125213623	880.2882690429688	-831.1287231445312	56.46726989746094	858.1889038085938	-896.4389038085938	183.7607421875	1677.329345703125	-649.0712280273438	129.5630035400391	1643.223510742188	-448.4029541015625	65.9443359375	1650.695068359375	-523.10205078125	282.0135498046875	1672.320068359375	-543.8447875976562	257.8877258300781	911.1551513671875	-446.9588012695312	251.2615356445312	929.3355102539062	-823.9105224609375	144.1674652099609	955.2020263671875	-750.6646728515625	151.0135803222656	966.2142333984375	-513.9287109375	40.52195358276367	530.6498413085938	-486.4731140136719	127.7105331420898	633.0768432617188	-454.724853515625	-66.4970703125	49.33412551879883	-496.1925659179688	25.26923942565918	279.0594177246094	-480.7217407226562	-273.8468933105469	133.5851593017578	-478.0048522949219	-229.8383483886719	117.6363143920898	-515.4044799804688	-162.9891357421875	98.82445526123047	-434.3052062988281	-24.67435646057129	33.71181106567383	-569.72314453125	321.6319885253906	500.4212646484375	-806.9722290039062	254.5599517822266	764.2210693359375	-828.1151123046875	559.7615356445312	54.33378601074219	-799.2010498046875	379.7471923828125	383.7471008300781	-811.4931030273438	328.0905456542969	39.02468872070312	-780.6152954101562	388.0896911621094	45.91315078735352	-745.8680419921875	416.9079895019531	35.38733673095703	-838.66357421875	612.2568969726562	64.91224670410156	-748.4566040039062	
